<?xml version="1.0" encoding="UTF-8" standalone="no"?>
<!-- Created with Inkscape (http://www.inkscape.org/) -->

<svg
   width="200mm"
   height="200mm"
   viewBox="0 0 200 200"
   version="1.1"
   id="svg1"
   xmlns="http://www.w3.org/2000/svg"
   xmlns:svg="http://www.w3.org/2000/svg">
  <defs
     id="defs1" />
  <g
     id="layer2"
     transform="translate(-0.53711176,0.34106064)">
    <rect
       style="fill:#e9c296;fill-opacity:1;stroke-width:6.62101"
       id="rect3"
       width="178.25063"
       height="20.255754"
       x="10.874687"
       y="67.017761"
       ry="10.127877"
       rx="10.127877" />
    <rect
       style="fill:#eacaa4;fill-opacity:1;stroke-width:5.47558"
       id="rect3-5"
       width="173.09787"
       height="14.265912"
       x="13.451065"
       y="67.017761"
       ry="7.132956"
       rx="7.132956" />
  </g>
  <g
     id="g17"
     transform="translate(-0.53711176,-1.7420349)">
    <rect
       style="fill:#e9c296;fill-opacity:1;stroke-width:6.62101"
       id="rect16"
       width="178.25063"
       height="20.255754"
       x="11.769874"
       y="93.694313"
       ry="10.127877"
       rx="10.127877" />
    <rect
       style="fill:#eacaa4;fill-opacity:1;stroke-width:5.47558"
       id="rect17"
       width="173.09787"
       height="14.265912"
       x="14.346251"
       y="93.694313"
       ry="7.132956"
       rx="7.132956" />
  </g>
  <g
     id="g20"
     transform="translate(-0.53711176,-2.2137947)">
    <rect
       style="fill:#e9c296;fill-opacity:1;stroke-width:6.62101"
       id="rect19"
       width="178.25063"
       height="20.255754"
       x="11.948911"
       y="118.75953"
       ry="10.127877"
       rx="10.127877" />
    <rect
       style="fill:#eacaa4;fill-opacity:1;stroke-width:5.47558"
       id="rect20"
       width="173.09787"
       height="14.265912"
       x="14.525289"
       y="118.75953"
       ry="7.132956"
       rx="7.132956" />
  </g>
  <g
     id="g22"
     transform="translate(-0.53711176)">
    <rect
       style="fill:#e9c296;fill-opacity:1;stroke-width:6.62101"
       id="rect21"
       width="178.25063"
       height="20.255754"
       x="11.053724"
       y="141.13919"
       ry="10.127877"
       rx="10.127877" />
    <rect
       style="fill:#eacaa4;fill-opacity:1;stroke-width:5.47558"
       id="rect22"
       width="173.09787"
       height="14.265912"
       x="13.630102"
       y="141.13919"
       ry="7.132956"
       rx="7.132956" />
  </g>
  <g
     id="layer1">
    <rect
       style="fill:#ffd42a;fill-opacity:1;stroke-width:6.62101"
       id="rect23"
       width="60.693634"
       height="20.231211"
       x="70.18261"
       y="42.789909"
       rx="3.6825347"
       ry="3.6825347" />
    <rect
       style="fill:#ffe680;fill-opacity:1;stroke-width:5.57738"
       id="rect23-3"
       width="60.783154"
       height="14.860092"
       x="70.137848"
       y="42.70039"
       rx="4.2163906"
       ry="4.2163906" />
  </g>
  <g
     id="layer4">
    <path
       style="fill:#552200;fill-opacity:1;stroke:none;stroke-width:6.62101"
       d="M 24.170031,67.358822 H 169.54829 c 0,0 1.61134,25.870884 -25.87088,25.870884 -27.48222,0 -7.93118,30.510504 -24.34907,30.257304 -15.15459,-0.23371 -0.98471,-24.259554 -18.35132,-24.259554 -17.366619,0 -3.193871,34.027124 -24.603218,34.027124 -21.409361,0 -7.514276,-40.959737 -25.204055,-40.959737 -11.244437,0 -26.999716,2.814754 -26.999716,-24.936021 z"
       id="path25" />
    <rect
       style="fill:#8a491e;fill-opacity:1;stroke:none;stroke-width:6.62101;stroke-dasharray:none;stroke-opacity:1"
       id="rect26"
       width="34.733227"
       height="11.10031"
       x="124.3043"
       y="71.265823"
       rx="5.5501552"
       ry="5.5501552" />
    <rect
       style="fill:#8a491e;fill-opacity:1;stroke:none;stroke-width:4.27728;stroke-dasharray:none;stroke-opacity:1"
       id="rect26-3"
       width="14.495466"
       height="11.10031"
       x="105.77773"
       y="71.265823"
       rx="5.5501552"
       ry="5.5501552" />
  </g>
</svg>
